# xmcd
#
# Track frame offsets:
#	150
#	5757
#	16169
#	24081
#	38334
#	53860
#	63040
#	72927
#	88080
#	100788
#	110972
#	122438
#	132959
#	153393
#	159404
#	170620
#
# Disc length: 2419
#
# Revision: 1
# Processed by: cddbd v1.5.1PL0 Copyright (c) Steve Scherf et al.
# Submitted via: CDex 1.40PlusFr
# Normalized: r0:TDELIM( - )
#
DISCID=c0097110
DTITLE=Artistes variés - Total Country CD 4
DYEAR=1900
DGENRE=Country
TTITLE0=Frankie Laine - Mule train
TTITLE1=Ferlin Husky - Wings of a dove
TTITLE2=George Jones - Jambalaya
TTITLE3=George Jones - Open pit mine
TTITLE4=Tina Turner - If this is our last time
TTITLE5=Frankie Laine - Rawhide
TTITLE6=Guy Mitchell - Rock a Billy
TTITLE7=Federation - Duellin' Banjos
TTITLE8=Farron Young - It's four in the morning
TTITLE9=Carl Perkins - Daddy sang bass
TTITLE10=Patsy Cline - I've loved and lost again
TTITLE11=Ricky Nelson - Travelin' man
TTITLE12=Federation - Who's on the other line
TTITLE13=Jim Reeves - Have I told you lately that I love you ?
TTITLE14=Frankie Laine - Love is a golden ring
TTITLE15=Guy Mitchell - Singing the blues
EXTD=ID3G: 2
EXTT0=
EXTT1=
EXTT2=
EXTT3=
EXTT4=
EXTT5=
EXTT6=
EXTT7=
EXTT8=
EXTT9=
EXTT10=
EXTT11=
EXTT12=
EXTT13=
EXTT14=
EXTT15=
PLAYORDER=
